<svg xmlns="http://www.w3.org/2000/svg" xmlns:xlink="http://www.w3.org/1999/xlink" width="500" zoomAndPan="magnify" viewBox="0 0 375 374.999991" height="500" preserveAspectRatio="xMidYMid meet" version="1.0"><path fill="#0d3b5c" d="M 74.828125 307.371094 L 79.074219 311.574219 L 79.5 311.996094 C 92.710938 325.683594 92.566406 347.726562 79.074219 361.226562 C 65.582031 374.726562 43.546875 374.867188 29.863281 361.652344 L 29.441406 361.226562 L 25.195312 357.027344 L 13.636719 345.414062 C 0 331.773438 0 309.449219 13.636719 295.761719 C 27.269531 282.121094 49.632812 282.121094 63.269531 295.761719 Z M 308.9375 115.269531 L 313.042969 111.164062 L 317.757812 106.445312 L 361.023438 63.160156 C 374.660156 49.519531 374.660156 27.195312 361.023438 13.507812 C 347.339844 -0.132812 325.023438 -0.132812 311.390625 13.507812 L 268.125 56.789062 L 263.40625 61.507812 L 259.304688 65.617188 L 234.484375 90.441406 C 220.851562 104.082031 220.851562 126.410156 234.484375 140.097656 L 259.304688 164.925781 L 263.738281 169.3125 L 311.71875 217.316406 C 325.355469 230.957031 347.671875 230.957031 361.355469 217.316406 C 374.988281 203.675781 374.988281 181.300781 361.355469 167.660156 L 313.371094 119.660156 Z M 15.617188 13.839844 L 15.617188 13.792969 C 29.25 0.152344 51.617188 0.152344 65.25 13.792969 L 360.695312 309.402344 C 374.375 323.042969 374.375 345.414062 360.695312 359.054688 C 347.058594 372.695312 324.742188 372.695312 311.058594 359.054688 L 15.617188 63.445312 C 1.980469 49.804688 1.980469 27.480469 15.617188 13.839844 Z M 15.191406 155.34375 C 28.828125 141.703125 51.144531 141.703125 64.824219 155.34375 L 98.464844 188.996094 L 171.265625 261.824219 L 219.246094 309.828125 C 232.882812 323.46875 232.882812 345.839844 219.246094 359.480469 C 205.566406 373.121094 183.25 373.121094 169.613281 359.480469 L 121.632812 311.476562 L 48.832031 238.648438 L 15.191406 204.996094 C 1.558594 191.355469 1.558594 168.984375 15.191406 155.34375 Z M 15.191406 155.34375 " fill-opacity="1" fill-rule="evenodd"/></svg>